<svg xmlns="http://www.w3.org/2000/svg" xmlns:xlink="http://www.w3.org/1999/xlink" width="1000" zoomAndPan="magnify" viewBox="0 0 750 749.999995" height="1000" preserveAspectRatio="xMidYMid meet" version="1.0"><defs><g/><clipPath id="b09c58cf2c"><path d="M 80.410156 71 L 669.910156 71 L 669.910156 687 L 80.410156 687 Z M 80.410156 71 " clip-rule="nonzero"/></clipPath><clipPath id="1381ea8f9f"><rect x="0" width="300" y="0" height="538"/></clipPath><clipPath id="12ced22c2f"><rect x="0" width="261" y="0" height="531"/></clipPath><clipPath id="e2f191916d"><rect x="0" width="364" y="0" height="65"/></clipPath></defs><g clip-path="url(#b09c58cf2c)"><path fill="#ffffff" d="M 259.097656 659.230469 L 261.15625 660.113281 L 263.21875 660.980469 L 265.292969 661.828125 L 267.371094 662.660156 L 269.460938 663.476562 L 271.558594 664.277344 L 273.660156 665.0625 L 275.765625 665.828125 L 277.886719 666.582031 L 280.011719 667.316406 L 282.144531 668.035156 L 284.28125 668.738281 L 286.425781 669.421875 L 288.578125 670.09375 L 290.738281 670.746094 L 292.898438 671.378906 L 295.070312 671.992188 L 297.238281 672.59375 L 299.417969 673.183594 L 301.605469 673.746094 L 303.792969 674.296875 L 305.988281 674.828125 L 308.183594 675.34375 L 310.386719 675.839844 L 312.59375 676.320312 L 314.808594 676.785156 L 317.019531 677.230469 L 319.242188 677.65625 L 321.460938 678.066406 L 323.6875 678.460938 L 325.914062 678.835938 L 328.144531 679.195312 L 330.378906 679.53125 L 332.613281 679.855469 L 334.847656 680.160156 L 337.089844 680.445312 L 339.332031 680.71875 L 341.574219 680.96875 L 343.816406 681.203125 L 346.066406 681.417969 L 348.308594 681.617188 L 350.558594 681.796875 L 352.800781 681.960938 L 355.054688 682.101562 L 357.300781 682.230469 L 359.546875 682.34375 L 361.796875 682.429688 L 364.046875 682.503906 L 366.292969 682.558594 L 368.542969 682.59375 L 370.789062 682.617188 L 373.03125 682.617188 L 375.277344 682.597656 L 377.519531 682.566406 L 379.757812 682.511719 L 382 682.441406 L 384.234375 682.355469 L 386.46875 682.25 L 388.699219 682.125 L 390.929688 681.984375 L 393.15625 681.824219 L 395.382812 681.644531 L 397.601562 681.453125 L 399.820312 681.234375 L 401.65625 681.046875 L 403.484375 680.847656 L 405.3125 680.632812 L 407.132812 680.410156 L 408.957031 680.175781 L 410.773438 679.933594 L 412.585938 679.675781 L 414.394531 679.410156 L 416.203125 679.128906 L 418.007812 678.839844 L 419.804688 678.539062 L 421.601562 678.230469 L 423.394531 677.902344 L 425.183594 677.574219 L 426.96875 677.226562 L 428.75 676.871094 L 430.53125 676.503906 L 432.308594 676.128906 L 434.078125 675.738281 L 435.851562 675.339844 L 437.613281 674.925781 L 439.375 674.503906 L 441.132812 674.070312 L 442.890625 673.625 L 444.636719 673.171875 L 446.386719 672.707031 L 448.128906 672.230469 L 449.875 671.742188 L 451.609375 671.242188 L 453.34375 670.730469 L 455.074219 670.210938 L 456.804688 669.679688 L 458.777344 669.054688 L 460.746094 668.417969 L 462.710938 667.765625 L 464.671875 667.097656 L 466.628906 666.417969 L 468.582031 665.71875 L 470.527344 665.007812 L 472.46875 664.28125 L 474.410156 663.542969 L 476.339844 662.792969 L 478.269531 662.023438 L 480.191406 661.242188 L 482.113281 660.441406 L 484.027344 659.628906 L 485.941406 658.804688 L 487.847656 657.964844 L 489.746094 657.109375 L 491.644531 656.238281 L 493.539062 655.351562 L 495.429688 654.457031 L 497.308594 653.542969 L 499.1875 652.613281 L 501.0625 651.671875 L 502.929688 650.71875 L 504.800781 649.746094 L 506.664062 648.757812 L 508.515625 647.757812 L 510.371094 646.742188 L 512.214844 645.714844 L 514.058594 644.667969 L 515.894531 643.613281 L 517.730469 642.539062 L 519.527344 641.472656 L 521.3125 640.390625 L 523.09375 639.300781 L 524.863281 638.191406 L 526.625 637.074219 L 528.382812 635.941406 L 530.132812 634.792969 L 531.875 633.636719 L 533.609375 632.460938 L 535.335938 631.277344 L 537.058594 630.074219 L 538.765625 628.863281 L 540.46875 627.636719 L 542.160156 626.402344 L 543.847656 625.148438 L 545.527344 623.886719 L 547.199219 622.613281 L 548.859375 621.324219 L 550.511719 620.023438 L 552.15625 618.710938 L 553.792969 617.378906 L 555.417969 616.046875 L 557.039062 614.695312 L 558.644531 613.332031 L 560.246094 611.957031 L 561.839844 610.570312 L 563.417969 609.171875 L 564.992188 607.761719 L 566.558594 606.339844 L 568.109375 604.902344 L 569.65625 603.457031 L 571.1875 602 L 572.714844 600.527344 L 574.230469 599.050781 L 575.734375 597.554688 L 577.230469 596.054688 L 578.71875 594.539062 L 580.191406 593.011719 L 581.660156 591.472656 L 583.117188 589.925781 L 584.5625 588.367188 L 585.996094 586.796875 L 587.421875 585.21875 L 588.832031 583.625 L 590.238281 582.023438 L 591.632812 580.410156 L 593.015625 578.789062 L 594.386719 577.15625 L 595.75 575.507812 L 597.097656 573.855469 L 598.433594 572.191406 L 599.765625 570.519531 L 601.082031 568.835938 L 602.386719 567.140625 L 603.679688 565.4375 L 604.960938 563.726562 L 606.230469 562 L 607.492188 560.273438 L 608.742188 558.527344 L 609.976562 556.777344 L 611.203125 555.015625 L 612.417969 553.25 L 613.621094 551.46875 L 614.808594 549.683594 L 616.097656 547.710938 L 617.347656 545.765625 L 618.558594 543.84375 L 619.722656 541.941406 L 620.941406 539.925781 L 622.140625 537.902344 L 623.328125 535.875 L 624.496094 533.847656 L 625.648438 531.808594 L 626.78125 529.765625 L 627.902344 527.714844 L 629.007812 525.664062 L 630.097656 523.601562 L 631.164062 521.542969 L 632.214844 519.472656 L 633.257812 517.398438 L 634.277344 515.320312 L 635.28125 513.234375 L 636.273438 511.144531 L 637.242188 509.050781 L 638.199219 506.949219 L 639.136719 504.84375 L 640.0625 502.730469 L 640.96875 500.617188 L 641.859375 498.492188 L 642.734375 496.367188 L 643.59375 494.230469 L 644.433594 492.097656 L 645.257812 489.953125 L 646.066406 487.808594 L 646.859375 485.65625 L 647.636719 483.492188 L 648.394531 481.332031 L 649.136719 479.160156 L 649.867188 476.984375 L 650.578125 474.804688 L 651.257812 472.664062 L 651.921875 470.511719 L 652.574219 468.359375 L 653.210938 466.195312 L 653.828125 464.03125 L 654.433594 461.859375 L 655.019531 459.683594 L 655.589844 457.503906 L 656.144531 455.316406 L 656.6875 453.125 L 657.210938 450.925781 L 657.71875 448.722656 L 658.214844 446.523438 L 658.691406 444.308594 L 659.152344 442.09375 L 659.59375 439.871094 L 660.027344 437.644531 L 660.441406 435.410156 L 660.839844 433.175781 L 661.21875 430.933594 L 661.585938 428.6875 L 661.9375 426.433594 L 662.269531 424.175781 L 662.59375 421.914062 L 662.894531 419.648438 L 663.183594 417.375 L 663.457031 415.097656 L 663.710938 412.8125 L 663.949219 410.527344 L 664.175781 408.234375 L 664.386719 405.9375 L 664.578125 403.636719 L 664.824219 400.371094 L 665.035156 397.113281 L 665.207031 393.847656 L 665.351562 390.578125 L 665.457031 387.304688 L 665.53125 384.035156 L 665.566406 380.757812 L 665.570312 377.480469 L 665.539062 374.203125 L 665.472656 370.929688 L 665.375 367.65625 L 665.234375 364.378906 L 665.066406 361.101562 L 664.859375 357.828125 L 664.621094 354.558594 L 664.351562 351.285156 L 664.039062 348.015625 L 663.699219 344.75 L 663.320312 341.488281 L 662.910156 338.226562 L 662.464844 334.976562 L 661.980469 331.726562 L 661.46875 328.480469 L 660.921875 325.242188 L 660.339844 322.003906 L 659.722656 318.777344 L 659.074219 315.558594 L 658.386719 312.34375 L 657.671875 309.136719 L 656.921875 305.933594 L 656.136719 302.742188 L 655.320312 299.558594 L 654.464844 296.386719 L 653.578125 293.222656 L 652.660156 290.0625 L 651.710938 286.921875 L 650.730469 283.785156 L 649.710938 280.664062 L 648.664062 277.554688 L 647.582031 274.453125 L 646.46875 271.363281 L 645.324219 268.289062 L 644.144531 265.226562 L 642.933594 262.175781 L 641.691406 259.140625 L 640.417969 256.117188 L 639.113281 253.109375 L 637.777344 250.117188 L 636.410156 247.140625 L 635.011719 244.175781 L 633.582031 241.234375 L 632.125 238.304688 L 630.632812 235.390625 L 629.113281 232.492188 L 627.5625 229.613281 L 625.984375 226.75 L 624.371094 223.910156 L 622.734375 221.082031 L 621.0625 218.277344 L 619.367188 215.488281 L 617.640625 212.726562 L 615.886719 209.976562 L 614.101562 207.246094 L 612.289062 204.539062 L 610.46875 201.875 L 608.621094 199.242188 L 606.75 196.628906 L 604.855469 194.042969 L 602.9375 191.476562 L 600.992188 188.9375 L 599.023438 186.417969 L 597.023438 183.925781 L 595.007812 181.457031 L 592.964844 179.015625 L 590.894531 176.59375 L 588.800781 174.199219 L 586.679688 171.824219 L 584.539062 169.476562 L 582.367188 167.148438 L 580.179688 164.851562 L 578.558594 163.179688 L 576.925781 161.523438 L 575.277344 159.878906 L 573.617188 158.25 L 571.941406 156.628906 L 570.257812 155.027344 L 568.558594 153.4375 L 566.839844 151.859375 L 565.117188 150.292969 L 563.375 148.738281 L 561.625 147.195312 L 559.855469 145.667969 L 558.082031 144.152344 L 556.285156 142.652344 L 554.476562 141.160156 L 552.660156 139.6875 L 550.828125 138.222656 L 548.984375 136.769531 L 547.121094 135.332031 L 545.25 133.90625 L 543.367188 132.492188 L 541.46875 131.089844 L 539.554688 129.707031 L 537.632812 128.332031 L 535.691406 126.96875 L 533.738281 125.621094 L 531.773438 124.285156 L 529.792969 122.964844 L 527.800781 121.652344 L 525.796875 120.351562 L 523.78125 119.066406 L 521.746094 117.796875 L 519.78125 116.589844 L 517.808594 115.40625 L 515.835938 114.242188 L 513.859375 113.109375 L 511.871094 111.996094 L 509.878906 110.894531 L 507.882812 109.816406 L 505.878906 108.746094 L 503.871094 107.699219 L 501.863281 106.667969 L 499.847656 105.652344 L 497.828125 104.652344 L 495.804688 103.671875 L 493.777344 102.703125 L 491.738281 101.757812 L 489.699219 100.824219 L 487.660156 99.90625 L 485.613281 99.007812 L 483.558594 98.125 L 481.5 97.257812 L 479.4375 96.410156 L 477.375 95.578125 L 475.304688 94.761719 L 473.230469 93.964844 L 471.144531 93.179688 L 469.0625 92.414062 L 466.972656 91.664062 L 464.882812 90.933594 L 462.78125 90.21875 L 460.679688 89.515625 L 458.570312 88.835938 L 456.460938 88.167969 L 454.339844 87.519531 L 452.21875 86.886719 L 450.09375 86.273438 L 447.964844 85.671875 L 446.382812 85.238281 L 444.800781 84.816406 L 443.214844 84.398438 L 441.628906 83.996094 L 440.035156 83.601562 L 438.441406 83.210938 L 436.851562 82.835938 L 435.25 82.464844 L 433.652344 82.105469 L 432.046875 81.75 L 430.4375 81.414062 L 428.832031 81.082031 L 427.222656 80.757812 L 425.605469 80.445312 L 423.992188 80.136719 L 422.375 79.84375 L 420.753906 79.554688 L 419.132812 79.277344 L 417.507812 79.007812 L 415.878906 78.746094 L 414.242188 78.5 L 412.613281 78.253906 L 410.976562 78.027344 L 409.335938 77.800781 L 407.695312 77.589844 L 406.050781 77.382812 L 404.410156 77.1875 L 402.757812 77.003906 L 401.109375 76.824219 L 399.453125 76.652344 L 397.796875 76.496094 L 396.140625 76.347656 L 394.320312 76.195312 L 392.5 76.050781 L 390.675781 75.921875 L 388.851562 75.808594 L 387.023438 75.703125 L 385.195312 75.613281 L 383.363281 75.535156 L 381.523438 75.464844 L 379.6875 75.410156 L 377.839844 75.367188 L 375.996094 75.335938 L 374.152344 75.316406 L 372.300781 75.3125 L 370.449219 75.316406 L 368.589844 75.335938 L 366.734375 75.367188 L 364.871094 75.410156 L 363.007812 75.464844 L 361.140625 75.527344 L 359.273438 75.613281 L 357.402344 75.699219 L 355.523438 75.804688 L 353.648438 75.917969 L 351.765625 76.046875 L 349.882812 76.191406 L 347.996094 76.339844 L 346.109375 76.507812 L 344.214844 76.679688 L 342.324219 76.867188 L 340.425781 77.070312 L 338.53125 77.285156 L 336.625 77.511719 L 334.304688 77.804688 L 331.988281 78.121094 L 329.6875 78.457031 L 327.390625 78.820312 L 325.523438 79.125 L 323.660156 79.449219 L 321.800781 79.777344 L 319.949219 80.121094 L 318.097656 80.476562 L 316.25 80.839844 L 314.410156 81.214844 L 312.574219 81.605469 L 310.738281 82.003906 L 308.910156 82.414062 L 307.082031 82.835938 L 305.261719 83.265625 L 303.449219 83.710938 L 301.636719 84.164062 L 299.828125 84.632812 L 298.023438 85.109375 L 296.230469 85.601562 L 294.4375 86.101562 L 292.644531 86.613281 L 290.855469 87.136719 L 289.074219 87.667969 L 287.300781 88.214844 L 285.527344 88.773438 L 283.761719 89.339844 L 281.996094 89.921875 L 280.238281 90.507812 L 278.480469 91.113281 L 276.730469 91.722656 L 274.980469 92.347656 L 273.242188 92.988281 L 271.503906 93.632812 L 269.769531 94.289062 L 267.910156 95.011719 L 266.058594 95.746094 L 264.210938 96.488281 L 262.371094 97.25 L 260.53125 98.019531 L 258.699219 98.804688 L 256.871094 99.605469 L 255.046875 100.417969 L 253.230469 101.238281 L 251.414062 102.074219 L 249.609375 102.925781 L 247.808594 103.789062 L 246.007812 104.667969 L 244.214844 105.550781 L 242.429688 106.457031 L 240.644531 107.371094 L 238.867188 108.300781 L 237.097656 109.242188 L 235.324219 110.195312 L 233.5625 111.160156 L 231.804688 112.140625 L 230.054688 113.136719 L 228.308594 114.144531 L 226.566406 115.160156 L 224.824219 116.195312 L 223.09375 117.242188 L 221.367188 118.296875 L 219.644531 119.371094 L 217.921875 120.453125 L 216.210938 121.550781 L 214.503906 122.660156 L 212.800781 123.785156 L 212.382812 124.046875 L 212.011719 124.257812 L 211.660156 124.417969 L 211.328125 124.539062 L 211.171875 124.578125 L 211.015625 124.609375 L 210.863281 124.628906 L 210.714844 124.640625 L 210.574219 124.632812 L 210.433594 124.621094 L 210.300781 124.597656 L 210.167969 124.5625 L 210.011719 124.503906 L 209.855469 124.425781 L 209.707031 124.335938 L 209.566406 124.226562 L 209.429688 124.101562 L 209.296875 123.960938 L 209.167969 123.800781 L 209.042969 123.621094 L 208.929688 123.425781 L 208.832031 123.238281 L 208.753906 123.054688 L 208.695312 122.875 L 208.65625 122.699219 L 208.640625 122.527344 L 208.644531 122.359375 L 208.664062 122.191406 L 208.707031 122.023438 L 208.773438 121.859375 L 208.859375 121.695312 L 208.964844 121.539062 L 209.09375 121.390625 L 209.246094 121.242188 L 209.417969 121.097656 L 209.613281 120.957031 L 212.195312 119.242188 L 214.796875 117.546875 L 217.414062 115.886719 L 220.050781 114.25 L 222.699219 112.640625 L 225.371094 111.058594 L 228.050781 109.507812 L 230.75 107.988281 L 233.457031 106.492188 L 236.1875 105.027344 L 238.925781 103.59375 L 241.675781 102.1875 L 244.441406 100.8125 L 247.214844 99.464844 L 250.007812 98.148438 L 252.804688 96.863281 L 255.613281 95.605469 L 258.441406 94.386719 L 261.273438 93.191406 L 264.113281 92.027344 L 266.964844 90.898438 L 269.828125 89.796875 L 272.695312 88.730469 L 275.574219 87.695312 L 278.457031 86.691406 L 281.351562 85.71875 L 284.253906 84.777344 L 287.160156 83.867188 L 290.070312 82.996094 L 292.988281 82.152344 L 295.914062 81.34375 L 298.847656 80.5625 L 300.738281 80.078125 L 302.628906 79.609375 L 304.519531 79.148438 L 306.410156 78.703125 L 308.304688 78.269531 L 310.195312 77.851562 L 312.089844 77.441406 L 313.980469 77.046875 L 315.875 76.667969 L 317.773438 76.296875 L 319.667969 75.9375 L 321.5625 75.597656 L 323.464844 75.261719 L 325.359375 74.945312 L 327.257812 74.644531 L 329.152344 74.347656 L 331.054688 74.070312 L 332.953125 73.804688 L 334.855469 73.546875 L 336.753906 73.308594 L 338.65625 73.078125 L 340.558594 72.863281 L 342.457031 72.65625 L 344.363281 72.46875 L 346.265625 72.289062 L 348.171875 72.125 L 350.078125 71.972656 L 351.980469 71.835938 L 353.886719 71.707031 L 355.789062 71.589844 L 357.699219 71.492188 L 359.605469 71.402344 L 361.617188 71.324219 L 363.628906 71.261719 L 365.644531 71.210938 L 367.652344 71.171875 L 369.667969 71.152344 L 371.683594 71.140625 L 373.695312 71.144531 L 375.710938 71.167969 L 377.730469 71.199219 L 379.746094 71.25 L 381.765625 71.316406 L 383.78125 71.390625 L 385.800781 71.480469 L 387.820312 71.585938 L 389.835938 71.707031 L 391.863281 71.84375 L 393.882812 71.992188 L 395.90625 72.152344 L 397.925781 72.332031 L 399.949219 72.519531 L 401.972656 72.726562 L 403.996094 72.941406 L 406.019531 73.175781 L 408.046875 73.421875 L 410.070312 73.683594 L 412.101562 73.960938 L 414.125 74.253906 L 416.152344 74.554688 L 418.179688 74.871094 L 420.210938 75.207031 L 422.242188 75.550781 L 424.269531 75.914062 L 426.480469 76.328125 L 428.6875 76.757812 L 430.890625 77.214844 L 433.089844 77.691406 L 435.070312 78.136719 L 437.042969 78.589844 L 439.011719 79.058594 L 440.972656 79.539062 L 442.929688 80.035156 L 444.882812 80.539062 L 446.824219 81.058594 L 448.765625 81.585938 L 450.695312 82.132812 L 452.625 82.6875 L 454.546875 83.253906 L 456.464844 83.835938 L 458.375 84.425781 L 460.277344 85.027344 L 462.179688 85.648438 L 464.070312 86.277344 L 465.960938 86.917969 L 467.839844 87.570312 L 469.71875 88.238281 L 471.585938 88.914062 L 473.453125 89.609375 L 475.3125 90.3125 L 477.167969 91.027344 L 479.011719 91.75 L 480.855469 92.496094 L 482.691406 93.242188 L 484.523438 94.011719 L 486.347656 94.785156 L 488.167969 95.574219 L 489.980469 96.378906 L 491.789062 97.195312 L 493.59375 98.019531 L 495.433594 98.878906 L 497.273438 99.753906 L 499.105469 100.640625 L 500.929688 101.539062 L 502.746094 102.453125 L 504.5625 103.382812 L 506.367188 104.316406 L 508.171875 105.273438 L 509.964844 106.234375 L 511.757812 107.214844 L 513.539062 108.203125 L 515.316406 109.210938 L 517.089844 110.222656 L 518.851562 111.257812 L 520.613281 112.296875 L 522.367188 113.355469 L 524.117188 114.421875 L 525.855469 115.507812 L 527.589844 116.597656 L 529.320312 117.707031 L 531.046875 118.828125 L 532.761719 119.960938 L 534.472656 121.109375 L 536.175781 122.265625 L 537.878906 123.441406 L 539.570312 124.625 L 541.257812 125.828125 L 542.941406 127.039062 L 544.617188 128.257812 L 546.28125 129.5 L 547.949219 130.75 L 549.605469 132.015625 L 550.917969 133.027344 L 552.226562 134.050781 L 553.527344 135.078125 L 554.824219 136.113281 L 556.113281 137.160156 L 557.398438 138.210938 L 558.671875 139.265625 L 559.945312 140.328125 L 561.214844 141.402344 L 562.476562 142.480469 L 563.730469 143.570312 L 564.976562 144.660156 L 566.226562 145.761719 L 567.460938 146.871094 L 568.695312 147.984375 L 569.917969 149.105469 L 571.136719 150.238281 L 572.351562 151.371094 L 573.558594 152.515625 L 574.761719 153.664062 L 575.957031 154.824219 L 577.144531 155.988281 L 578.328125 157.152344 L 579.503906 158.332031 L 580.679688 159.515625 L 581.839844 160.710938 L 583 161.910156 L 584.148438 163.109375 L 585.296875 164.320312 L 586.433594 165.539062 L 587.566406 166.765625 L 588.691406 167.992188 L 589.8125 169.226562 L 590.921875 170.472656 L 592.027344 171.726562 L 593.125 172.976562 L 594.222656 174.246094 L 595.304688 175.511719 L 596.382812 176.785156 L 597.457031 178.066406 L 598.523438 179.355469 L 599.582031 180.652344 L 600.632812 181.949219 L 601.675781 183.253906 L 602.714844 184.570312 L 603.75 185.886719 L 605.785156 188.539062 L 606.796875 189.875 L 607.800781 191.21875 L 609.785156 193.917969 L 611.742188 196.644531 L 613.671875 199.394531 L 615.566406 202.160156 L 617.433594 204.949219 L 619.273438 207.765625 L 621.082031 210.597656 L 622.863281 213.453125 L 624.613281 216.328125 L 626.332031 219.226562 L 628.019531 222.148438 L 629.679688 225.085938 L 631.308594 228.039062 L 632.898438 231.011719 L 634.464844 234 L 635.996094 237.015625 L 637.5 240.046875 L 638.96875 243.09375 L 640.402344 246.152344 L 641.808594 249.234375 L 643.175781 252.328125 L 644.515625 255.4375 L 645.820312 258.5625 L 647.089844 261.707031 L 648.328125 264.859375 L 649.535156 268.03125 L 650.707031 271.214844 L 651.84375 274.410156 L 652.949219 277.617188 L 654.019531 280.84375 L 655.058594 284.078125 L 656.058594 287.324219 L 657.027344 290.582031 L 657.957031 293.851562 L 658.851562 297.125 L 659.714844 300.417969 L 660.546875 303.71875 L 661.339844 307.027344 L 662.097656 310.34375 L 662.621094 312.734375 L 663.125 315.125 L 663.605469 317.53125 L 664.074219 319.9375 L 664.523438 322.347656 L 664.953125 324.761719 L 665.363281 327.1875 L 665.753906 329.613281 L 666.125 332.046875 L 666.480469 334.484375 L 666.816406 336.925781 L 667.132812 339.367188 L 667.429688 341.816406 L 667.703125 344.269531 L 667.964844 346.722656 L 668.207031 349.179688 L 668.425781 351.636719 L 668.628906 354.101562 L 668.8125 356.570312 L 668.976562 359.035156 L 669.117188 361.511719 L 669.246094 363.984375 L 669.351562 366.457031 L 669.441406 368.929688 L 669.507812 371.410156 L 669.554688 373.886719 L 669.585938 376.359375 L 669.59375 378.839844 L 669.585938 381.316406 L 669.558594 383.796875 L 669.511719 386.273438 L 669.445312 388.75 L 669.363281 391.230469 L 669.257812 393.707031 L 669.132812 396.183594 L 668.988281 398.660156 L 668.824219 401.128906 L 668.644531 403.597656 L 668.445312 406.066406 L 668.222656 408.535156 L 667.988281 410.996094 L 667.726562 413.457031 L 667.453125 415.914062 L 667.160156 418.371094 L 666.84375 420.820312 L 666.511719 423.269531 L 666.160156 425.714844 L 665.785156 428.15625 L 665.394531 430.59375 L 664.988281 433.019531 L 664.5625 435.449219 L 664.117188 437.871094 L 663.648438 440.289062 L 663.167969 442.703125 L 662.664062 445.109375 L 662.144531 447.507812 L 661.605469 449.902344 L 661.046875 452.296875 L 660.472656 454.671875 L 659.875 457.050781 L 659.265625 459.417969 L 658.632812 461.78125 L 657.980469 464.136719 L 657.316406 466.484375 L 656.40625 469.578125 L 655.464844 472.664062 L 654.492188 475.738281 L 653.492188 478.796875 L 652.460938 481.851562 L 651.394531 484.886719 L 650.300781 487.917969 L 649.179688 490.925781 L 648.019531 493.933594 L 646.84375 496.921875 L 645.625 499.898438 L 644.382812 502.859375 L 643.109375 505.8125 L 641.808594 508.746094 L 640.476562 511.667969 L 639.113281 514.574219 L 637.726562 517.46875 L 636.308594 520.339844 L 634.859375 523.199219 L 633.386719 526.042969 L 631.882812 528.867188 L 630.351562 531.679688 L 628.792969 534.46875 L 627.203125 537.246094 L 625.589844 540 L 623.945312 542.742188 L 622.28125 545.460938 L 620.582031 548.164062 L 618.855469 550.84375 L 617.109375 553.511719 L 615.332031 556.15625 L 613.527344 558.78125 L 611.703125 561.382812 L 609.847656 563.964844 L 607.964844 566.527344 L 606.0625 569.066406 L 604.132812 571.585938 L 602.175781 574.085938 L 600.195312 576.5625 L 598.191406 579.019531 L 596.164062 581.445312 L 594.105469 583.859375 L 592.03125 586.242188 L 589.929688 588.609375 L 587.804688 590.945312 L 585.65625 593.265625 L 583.488281 595.554688 L 581.292969 597.820312 L 579.082031 600.066406 L 576.839844 602.285156 L 574.578125 604.480469 L 572.296875 606.652344 L 569.996094 608.792969 L 567.667969 610.914062 L 565.324219 613.003906 L 562.953125 615.070312 L 560.5625 617.113281 L 558.152344 619.128906 L 555.726562 621.117188 L 553.277344 623.082031 L 550.808594 625.011719 L 548.320312 626.921875 L 545.808594 628.804688 L 543.28125 630.65625 L 541.285156 632.09375 L 539.277344 633.511719 L 537.269531 634.910156 L 535.25 636.292969 L 533.21875 637.65625 L 531.1875 639 L 529.148438 640.328125 L 527.097656 641.636719 L 525.046875 642.917969 L 522.988281 644.191406 L 520.917969 645.445312 L 518.84375 646.679688 L 516.757812 647.890625 L 514.667969 649.089844 L 512.570312 650.265625 L 510.46875 651.425781 L 508.355469 652.566406 L 506.234375 653.6875 L 504.109375 654.792969 L 501.976562 655.875 L 499.839844 656.945312 L 497.691406 657.992188 L 495.539062 659.023438 L 493.375 660.035156 L 491.210938 661.023438 L 489.035156 662.003906 L 486.851562 662.957031 L 484.660156 663.894531 L 482.464844 664.816406 L 480.261719 665.714844 L 478.046875 666.597656 L 475.832031 667.457031 L 474.144531 668.101562 L 472.449219 668.734375 L 470.746094 669.359375 L 469.042969 669.96875 L 467.335938 670.570312 L 465.628906 671.164062 L 463.914062 671.742188 L 462.191406 672.308594 L 460.472656 672.871094 L 458.746094 673.414062 L 457.011719 673.953125 L 455.277344 674.480469 L 453.535156 674.996094 L 451.792969 675.5 L 450.042969 675.996094 L 448.296875 676.476562 L 446.539062 676.949219 L 444.777344 677.414062 L 443.015625 677.867188 L 441.246094 678.308594 L 439.472656 678.734375 L 437.695312 679.15625 L 435.914062 679.566406 L 434.128906 679.964844 L 432.34375 680.351562 L 430.550781 680.726562 L 428.75 681.09375 L 426.953125 681.445312 L 425.144531 681.796875 L 423.335938 682.125 L 421.523438 682.453125 L 419.703125 682.765625 L 416.648438 683.265625 L 413.597656 683.730469 L 410.539062 684.164062 L 407.488281 684.5625 L 404.433594 684.929688 L 401.378906 685.265625 L 398.324219 685.566406 L 395.269531 685.839844 L 392.214844 686.074219 L 389.164062 686.273438 L 386.109375 686.445312 L 383.054688 686.582031 L 380.003906 686.683594 L 376.949219 686.757812 L 373.894531 686.792969 L 370.84375 686.796875 L 368.402344 686.78125 L 365.960938 686.738281 L 363.519531 686.675781 L 361.078125 686.589844 L 358.636719 686.484375 L 356.195312 686.363281 L 353.753906 686.214844 L 351.3125 686.046875 L 348.871094 685.855469 L 346.429688 685.652344 L 343.984375 685.417969 L 341.542969 685.164062 L 339.101562 684.894531 L 336.660156 684.601562 L 334.21875 684.28125 L 331.777344 683.945312 L 329.335938 683.585938 L 326.898438 683.210938 L 324.457031 682.808594 L 322.015625 682.386719 L 319.574219 681.945312 L 317.140625 681.484375 L 314.699219 680.996094 L 312.257812 680.492188 L 309.816406 679.964844 L 307.378906 679.417969 L 304.9375 678.847656 L 302.496094 678.257812 L 300.058594 677.648438 L 297.617188 677.015625 L 295.179688 676.363281 L 292.738281 675.6875 L 290.492188 675.042969 L 288.234375 674.371094 L 285.964844 673.667969 L 283.679688 672.9375 L 281.890625 672.351562 L 280.101562 671.753906 L 278.328125 671.144531 L 276.554688 670.523438 L 274.789062 669.894531 L 273.027344 669.257812 L 271.269531 668.609375 L 269.519531 667.949219 L 267.777344 667.28125 L 266.042969 666.601562 L 264.308594 665.914062 L 262.582031 665.210938 L 260.859375 664.5 L 259.144531 663.777344 L 257.4375 663.046875 L 255.734375 662.308594 L 254.035156 661.558594 L 252.34375 660.796875 L 250.660156 660.023438 L 248.972656 659.242188 L 247.300781 658.453125 L 245.632812 657.652344 L 243.96875 656.839844 L 242.3125 656.019531 L 240.660156 655.183594 L 239.015625 654.34375 L 237.371094 653.488281 L 235.738281 652.625 L 234.109375 651.753906 L 232.484375 650.867188 L 230.871094 649.976562 L 229.257812 649.074219 L 227.578125 648.121094 L 225.902344 647.152344 L 224.238281 646.171875 L 222.578125 645.183594 L 220.925781 644.183594 L 219.277344 643.171875 L 217.632812 642.148438 L 216 641.117188 L 214.371094 640.070312 L 212.746094 639.015625 L 211.132812 637.945312 L 209.519531 636.867188 L 207.917969 635.777344 L 206.320312 634.675781 L 204.730469 633.566406 L 203.144531 632.441406 L 201.566406 631.308594 L 199.992188 630.167969 L 198.429688 629.011719 L 196.867188 627.84375 L 195.3125 626.664062 L 193.765625 625.476562 L 192.222656 624.273438 L 190.691406 623.0625 L 189.164062 621.835938 L 187.636719 620.601562 L 186.125 619.359375 L 184.613281 618.101562 L 183.109375 616.835938 L 181.613281 615.558594 L 180.121094 614.265625 L 178.640625 612.964844 L 177.085938 611.589844 L 175.546875 610.199219 L 174.011719 608.796875 L 172.488281 607.386719 L 170.976562 605.960938 L 169.46875 604.527344 L 167.96875 603.082031 L 166.480469 601.621094 L 165.003906 600.148438 L 163.53125 598.671875 L 162.070312 597.179688 L 160.625 595.679688 L 159.183594 594.164062 L 157.753906 592.640625 L 156.332031 591.101562 L 154.921875 589.558594 L 153.523438 588.003906 L 152.132812 586.433594 L 150.75 584.859375 L 149.378906 583.273438 L 148.019531 581.675781 L 146.671875 580.070312 L 145.328125 578.453125 L 144.003906 576.828125 L 142.6875 575.191406 L 141.378906 573.546875 L 140.078125 571.890625 L 138.800781 570.230469 L 137.523438 568.554688 L 136.261719 566.871094 L 135.007812 565.175781 L 133.765625 563.480469 L 132.535156 561.769531 L 131.320312 560.050781 L 130.113281 558.320312 L 128.917969 556.585938 L 127.734375 554.84375 L 126.566406 553.089844 L 125.402344 551.332031 L 124.257812 549.566406 L 123.121094 547.789062 L 122 546.003906 L 120.886719 544.214844 L 119.785156 542.414062 L 118.699219 540.605469 L 117.625 538.792969 L 116.566406 536.972656 L 115.511719 535.140625 L 114.476562 533.308594 L 113.453125 531.464844 L 112.4375 529.621094 L 111.441406 527.765625 L 110.457031 525.902344 L 109.484375 524.035156 L 108.519531 522.15625 L 107.574219 520.277344 L 106.636719 518.390625 L 105.714844 516.5 L 104.808594 514.597656 L 103.910156 512.695312 L 103.03125 510.785156 L 102.164062 508.871094 L 101.304688 506.953125 L 100.464844 505.027344 L 99.730469 503.300781 L 99.113281 501.808594 L 98.617188 500.546875 L 98.234375 499.519531 L 97.625 497.746094 L 97.023438 495.980469 L 95.851562 492.433594 L 95.289062 490.660156 L 94.730469 488.886719 L 94.183594 487.109375 L 93.644531 485.332031 L 93.117188 483.550781 L 92.605469 481.773438 L 92.097656 479.992188 L 91.601562 478.210938 L 91.117188 476.425781 L 90.644531 474.644531 L 90.179688 472.859375 L 89.730469 471.070312 L 89.285156 469.285156 L 88.859375 467.496094 L 88.4375 465.703125 L 88.027344 463.914062 L 87.628906 462.121094 L 87.238281 460.328125 L 86.859375 458.53125 L 86.492188 456.738281 L 86.132812 454.941406 L 85.789062 453.144531 L 85.453125 451.34375 L 85.128906 449.546875 L 84.8125 447.742188 L 84.507812 445.9375 L 84.214844 444.136719 L 83.929688 442.332031 L 83.601562 440.15625 L 83.273438 437.914062 L 82.945312 435.59375 L 82.617188 433.207031 L 82.402344 431.5625 L 82.195312 429.914062 L 82.003906 428.261719 L 81.824219 426.605469 L 81.648438 424.949219 L 81.488281 423.289062 L 81.339844 421.628906 L 81.203125 419.964844 L 81.082031 418.296875 L 80.964844 416.628906 L 80.859375 414.957031 L 80.769531 413.28125 L 80.683594 411.605469 L 80.617188 409.925781 L 80.558594 408.242188 L 80.511719 406.558594 L 80.472656 404.875 L 80.445312 403.183594 L 80.433594 401.492188 L 80.433594 399.796875 L 80.441406 398.101562 L 80.460938 396.402344 L 80.492188 394.699219 L 80.535156 392.996094 L 80.585938 391.289062 L 80.648438 389.578125 L 80.726562 387.867188 L 80.8125 386.152344 L 80.910156 384.4375 L 81.019531 382.71875 L 81.140625 380.996094 L 81.273438 379.269531 L 81.492188 376.6875 L 81.742188 374.113281 L 82.011719 371.542969 L 82.308594 368.984375 L 82.636719 366.4375 L 82.988281 363.902344 L 83.371094 361.367188 L 83.773438 358.847656 L 84.210938 356.335938 L 84.667969 353.835938 L 85.15625 351.34375 L 85.664062 348.863281 L 86.207031 346.382812 L 86.769531 343.917969 L 87.363281 341.464844 L 87.984375 339.019531 L 88.566406 336.808594 L 89.160156 334.652344 L 89.773438 332.542969 L 90.394531 330.464844 L 91.039062 328.429688 L 91.695312 326.433594 L 92.363281 324.472656 L 93.054688 322.546875 L 93.761719 320.65625 L 94.484375 318.796875 L 95.222656 316.976562 L 95.980469 315.179688 L 96.757812 313.417969 L 97.550781 311.683594 L 98.363281 309.984375 L 99.199219 308.316406 L 100.046875 306.667969 L 100.917969 305.050781 L 101.808594 303.464844 L 102.722656 301.910156 L 103.65625 300.375 L 104.605469 298.871094 L 105.578125 297.398438 L 106.570312 295.949219 L 107.582031 294.523438 L 108.617188 293.128906 L 109.671875 291.761719 L 110.746094 290.421875 L 111.84375 289.105469 L 112.960938 287.8125 L 114.101562 286.546875 L 115.261719 285.308594 L 115.859375 284.699219 L 116.507812 284.042969 L 117.242188 283.332031 L 118.25 282.371094 L 119.445312 281.226562 L 120.3125 280.371094 L 120.785156 279.914062 L 121.28125 279.460938 L 121.785156 279.023438 L 122.316406 278.59375 L 123.578125 277.613281 L 124.824219 276.667969 L 126.070312 275.765625 L 127.304688 274.902344 L 128.527344 274.070312 L 129.746094 273.28125 L 130.957031 272.53125 L 132.152344 271.820312 L 132.875 271.417969 L 133.648438 271.015625 L 134.472656 270.605469 L 135.359375 270.191406 L 136.285156 269.773438 L 137.3125 269.335938 L 138.460938 268.851562 L 140.042969 268.210938 L 142.464844 267.21875 L 143.378906 266.828125 L 144.207031 266.464844 L 144.789062 266.207031 L 145.378906 265.964844 L 145.980469 265.726562 L 146.59375 265.492188 L 147.210938 265.273438 L 147.835938 265.058594 L 148.472656 264.851562 L 149.117188 264.652344 L 150.636719 264.210938 L 152.148438 263.808594 L 153.65625 263.4375 L 155.15625 263.097656 L 156.648438 262.789062 L 158.132812 262.515625 L 159.613281 262.277344 L 161.085938 262.070312 L 162.542969 261.890625 L 164.003906 261.753906 L 165.453125 261.640625 L 166.894531 261.570312 L 168.332031 261.523438 L 169.757812 261.515625 L 171.179688 261.542969 L 172.59375 261.597656 L 173.527344 261.65625 L 174.453125 261.734375 L 175.371094 261.832031 L 176.277344 261.945312 L 177.175781 262.082031 L 178.066406 262.238281 L 178.945312 262.414062 L 179.820312 262.605469 L 180.6875 262.820312 L 181.539062 263.050781 L 182.386719 263.304688 L 183.222656 263.578125 L 184.054688 263.867188 L 184.875 264.179688 L 185.6875 264.507812 L 186.492188 264.855469 L 187.132812 265.152344 L 187.773438 265.464844 L 188.40625 265.785156 L 189.027344 266.121094 L 189.648438 266.464844 L 190.265625 266.828125 L 190.875 267.199219 L 191.480469 267.585938 L 192.078125 267.984375 L 192.667969 268.394531 L 193.257812 268.816406 L 193.835938 269.25 L 194.40625 269.703125 L 194.980469 270.164062 L 195.542969 270.636719 L 196.101562 271.125 L 196.628906 271.605469 L 197.136719 272.097656 L 197.640625 272.605469 L 198.121094 273.125 L 198.589844 273.660156 L 199.039062 274.203125 L 199.480469 274.761719 L 199.902344 275.332031 L 200.304688 275.910156 L 200.691406 276.503906 L 201.0625 277.105469 L 201.414062 277.714844 L 201.753906 278.332031 L 202.070312 278.960938 L 202.371094 279.597656 L 202.65625 280.242188 L 202.917969 280.894531 L 203.164062 281.554688 L 203.394531 282.222656 L 203.601562 282.890625 L 203.789062 283.570312 L 203.957031 284.25 L 204.109375 284.933594 L 204.238281 285.625 L 204.347656 286.316406 L 204.441406 287.011719 L 204.511719 287.710938 L 204.5625 288.410156 L 204.597656 289.109375 L 204.609375 289.8125 L 204.601562 290.515625 L 204.574219 291.214844 L 204.53125 291.820312 L 204.476562 292.421875 L 204.40625 293.023438 L 204.324219 293.625 L 204.222656 294.222656 L 204.109375 294.820312 L 203.980469 295.410156 L 203.839844 295.996094 L 203.683594 296.585938 L 203.507812 297.167969 L 203.324219 297.746094 L 203.121094 298.320312 L 202.910156 298.894531 L 202.683594 299.457031 L 202.4375 300.023438 L 202.183594 300.578125 L 201.964844 301.019531 L 201.742188 301.453125 L 201.511719 301.882812 L 201.269531 302.304688 L 201.019531 302.722656 L 200.765625 303.128906 L 200.496094 303.535156 L 200.222656 303.933594 L 199.9375 304.324219 L 199.648438 304.707031 L 199.351562 305.085938 L 199.042969 305.457031 L 198.726562 305.820312 L 198.40625 306.175781 L 198.074219 306.527344 L 197.734375 306.871094 L 197.136719 307.4375 L 196.519531 307.988281 L 195.875 308.511719 L 195.214844 309.019531 L 194.53125 309.496094 L 193.835938 309.945312 L 193.117188 310.371094 L 192.382812 310.769531 L 191.636719 311.148438 L 190.871094 311.496094 L 190.089844 311.816406 L 189.296875 312.109375 L 188.488281 312.371094 L 187.671875 312.609375 L 186.839844 312.820312 L 186 313 L 185.265625 313.128906 L 184.53125 313.226562 L 183.804688 313.292969 L 183.082031 313.328125 L 182.359375 313.332031 L 181.640625 313.304688 L 180.929688 313.246094 L 180.222656 313.152344 L 179.519531 313.027344 L 178.824219 312.878906 L 178.132812 312.695312 L 177.449219 312.476562 L 176.769531 312.230469 L 176.09375 311.949219 L 175.425781 311.644531 L 174.769531 311.308594 L 174.113281 310.9375 L 173.46875 310.535156 L 172.828125 310.105469 L 172.199219 309.644531 L 171.582031 309.160156 L 170.96875 308.640625 L 170.363281 308.09375 L 169.773438 307.515625 L 169.191406 306.910156 L 168.617188 306.277344 L 168.050781 305.617188 L 167.5 304.925781 L 166.96875 304.210938 L 166.445312 303.476562 L 165.941406 302.714844 L 165.449219 301.9375 L 164.976562 301.132812 L 164.523438 300.3125 L 164.085938 299.472656 L 163.667969 298.617188 L 163.273438 297.75 L 162.902344 296.871094 L 162.550781 295.984375 L 162.222656 295.089844 L 161.664062 293.511719 L 161.109375 291.988281 L 160.5625 290.515625 L 160.015625 289.09375 L 159.789062 288.542969 L 159.546875 288.003906 L 159.285156 287.464844 L 159.007812 286.941406 L 158.703125 286.421875 L 158.386719 285.910156 L 158.046875 285.40625 L 157.695312 284.910156 L 157.320312 284.421875 L 156.933594 283.945312 L 156.523438 283.476562 L 156.101562 283.019531 L 155.65625 282.570312 L 155.195312 282.128906 L 154.71875 281.703125 L 154.230469 281.285156 L 153.714844 280.871094 L 153.191406 280.472656 L 152.648438 280.085938 L 152.09375 279.710938 L 151.519531 279.34375 L 150.9375 278.996094 L 150.335938 278.65625 L 149.726562 278.328125 L 149.101562 278.015625 L 148.46875 277.71875 L 147.820312 277.433594 L 147.171875 277.167969 L 146.5 276.910156 L 145.832031 276.671875 L 145.148438 276.441406 L 144.460938 276.238281 L 143.945312 276.09375 L 143.425781 275.96875 L 142.90625 275.863281 L 142.386719 275.777344 L 141.863281 275.707031 L 141.347656 275.65625 L 140.828125 275.625 L 140.308594 275.613281 L 139.648438 275.617188 L 138.992188 275.652344 L 138.332031 275.71875 L 137.671875 275.8125 L 137.015625 275.9375 L 136.351562 276.089844 L 135.691406 276.273438 L 135.03125 276.484375 L 134.292969 276.746094 L 133.558594 277.03125 L 132.832031 277.332031 L 132.109375 277.660156 L 131.386719 278.003906 L 130.671875 278.367188 L 129.960938 278.75 L 129.253906 279.15625 L 128.550781 279.582031 L 127.855469 280.027344 L 127.15625 280.492188 L 126.46875 280.976562 L 125.785156 281.488281 L 125.105469 282.007812 L 124.425781 282.554688 L 123.757812 283.125 L 122.554688 284.179688 L 121.894531 284.785156 L 121.238281 285.390625 L 120.589844 286.007812 L 119.945312 286.632812 L 119.308594 287.265625 L 118.679688 287.902344 L 118.054688 288.542969 L 117.441406 289.199219 L 116.832031 289.863281 L 116.230469 290.527344 L 115.628906 291.207031 L 115.039062 291.886719 L 114.453125 292.578125 L 113.875 293.277344 L 113.304688 293.984375 L 112.742188 294.695312 L 112.175781 295.417969 L 111.625 296.148438 L 111.082031 296.886719 L 110.539062 297.632812 L 110 298.382812 L 109.472656 299.144531 L 108.949219 299.917969 L 108.4375 300.691406 L 107.921875 301.476562 L 107.417969 302.269531 L 106.921875 303.074219 L 106.425781 303.882812 L 105.941406 304.699219 L 105.457031 305.523438 L 104.519531 307.199219 L 103.59375 308.910156 L 102.699219 310.652344 L 101.824219 312.425781 L 100.96875 314.242188 L 100.140625 316.089844 L 99.328125 317.976562 L 98.539062 319.902344 L 97.765625 321.863281 L 97.015625 323.867188 L 96.285156 325.910156 L 95.574219 328 L 94.875 330.136719 L 94.199219 332.316406 L 93.535156 334.550781 L 92.894531 336.835938 L 92.257812 339.179688 L 91.898438 340.574219 L 91.542969 341.96875 L 91.199219 343.371094 L 90.859375 344.777344 L 90.535156 346.1875 L 90.21875 347.601562 L 89.90625 349.011719 L 89.601562 350.4375 L 89.308594 351.859375 L 89.023438 353.28125 L 88.75 354.714844 L 88.484375 356.148438 L 87.976562 359.023438 L 87.503906 361.910156 L 87.066406 364.804688 L 86.660156 367.71875 L 86.296875 370.636719 L 85.964844 373.570312 L 85.667969 376.507812 L 85.40625 379.457031 L 85.183594 382.414062 L 84.988281 385.378906 L 84.839844 388.347656 L 84.71875 391.332031 L 84.636719 394.320312 L 84.589844 397.300781 L 84.578125 400.296875 L 84.605469 403.296875 L 84.664062 406.296875 L 84.761719 409.296875 L 84.890625 412.304688 L 85.058594 415.308594 L 85.261719 418.316406 L 85.5 421.316406 L 85.773438 424.324219 L 86.082031 427.324219 L 86.425781 430.324219 L 86.808594 433.324219 L 87.125 435.632812 L 87.449219 437.929688 L 87.792969 440.21875 L 88.148438 442.496094 L 88.519531 444.769531 L 88.898438 447.027344 L 89.300781 449.273438 L 89.707031 451.515625 L 90.136719 453.742188 L 90.570312 455.957031 L 91.023438 458.164062 L 91.488281 460.355469 L 91.964844 462.539062 L 92.457031 464.710938 L 92.960938 466.863281 L 93.480469 469.003906 L 94.011719 471.136719 L 94.558594 473.253906 L 95.117188 475.359375 L 95.6875 477.449219 L 96.269531 479.527344 L 96.867188 481.59375 L 97.476562 483.644531 L 98.101562 485.683594 L 98.734375 487.707031 L 99.386719 489.710938 L 100.046875 491.707031 L 100.722656 493.691406 L 101.40625 495.65625 L 102.109375 497.605469 L 102.820312 499.542969 L 103.542969 501.464844 L 103.96875 502.558594 L 104.398438 503.644531 L 104.839844 504.726562 L 105.292969 505.8125 L 105.753906 506.894531 L 106.226562 507.972656 L 106.707031 509.046875 L 107.199219 510.121094 L 107.941406 511.71875 L 108.695312 513.304688 L 109.457031 514.886719 L 110.222656 516.46875 L 110.996094 518.039062 L 111.78125 519.605469 L 112.578125 521.171875 L 113.375 522.722656 L 114.1875 524.273438 L 115.003906 525.816406 L 116.660156 528.886719 L 117.503906 530.414062 L 118.355469 531.933594 L 119.210938 533.445312 L 120.078125 534.957031 L 120.953125 536.460938 L 121.835938 537.957031 L 122.726562 539.449219 L 123.628906 540.9375 L 124.53125 542.414062 L 125.449219 543.886719 L 126.371094 545.355469 L 127.304688 546.820312 L 128.246094 548.273438 L 129.195312 549.730469 L 130.148438 551.171875 L 131.113281 552.613281 L 132.085938 554.042969 L 133.066406 555.476562 L 134.054688 556.894531 L 135.054688 558.3125 L 136.226562 559.949219 L 137.40625 561.585938 L 138.597656 563.207031 L 139.800781 564.824219 L 141.011719 566.429688 L 142.238281 568.03125 L 143.472656 569.625 L 144.71875 571.207031 L 145.976562 572.785156 L 147.25 574.355469 L 148.527344 575.917969 L 149.820312 577.46875 L 151.121094 579.015625 L 152.433594 580.550781 L 153.761719 582.078125 L 155.097656 583.601562 L 156.546875 585.234375 L 158 586.847656 L 159.46875 588.449219 L 160.949219 590.042969 L 162.429688 591.621094 L 163.925781 593.1875 L 165.429688 594.738281 L 166.941406 596.273438 L 168.464844 597.800781 L 169.992188 599.316406 L 171.535156 600.816406 L 173.082031 602.304688 L 174.636719 603.78125 L 176.207031 605.246094 L 177.78125 606.695312 L 179.363281 608.132812 L 180.957031 609.554688 L 182.5625 610.96875 L 184.171875 612.367188 L 185.792969 613.753906 L 187.421875 615.128906 L 189.0625 616.492188 L 190.707031 617.835938 L 192.367188 619.171875 L 194.03125 620.496094 L 195.707031 621.804688 L 197.390625 623.101562 L 199.085938 624.386719 L 200.78125 625.660156 L 202.496094 626.917969 L 204.214844 628.164062 L 205.945312 629.394531 L 207.492188 630.488281 L 209.050781 631.566406 L 210.613281 632.636719 L 212.1875 633.695312 L 213.765625 634.742188 L 215.347656 635.785156 L 216.941406 636.8125 L 218.542969 637.832031 L 220.148438 638.835938 L 221.765625 639.835938 L 223.382812 640.824219 L 225.015625 641.800781 L 226.652344 642.769531 L 228.296875 643.726562 L 229.941406 644.671875 L 231.605469 645.613281 L 233.265625 646.539062 L 234.941406 647.453125 L 236.617188 648.363281 L 238.304688 649.257812 L 239.996094 650.148438 L 241.695312 651.023438 L 243.40625 651.886719 L 245.121094 652.746094 L 246.839844 653.589844 L 248.570312 654.429688 L 250.308594 655.25 L 252.054688 656.066406 L 253.800781 656.875 L 255.558594 657.667969 L 257.328125 658.453125 Z M 259.097656 659.230469 " fill-opacity="1" fill-rule="nonzero"/></g><g transform="matrix(1, 0, 0, 1, 335, 99)"><g clip-path="url(#1381ea8f9f)"><g fill="#ffffff" fill-opacity="1"><g transform="translate(0.448853, 414.738452)"><g><path d="M 171.59375 -307.1875 C 192.945312 -307.1875 211.960938 -303.015625 228.640625 -294.671875 C 245.316406 -286.335938 258.550781 -275.003906 268.34375 -260.671875 C 278.144531 -246.335938 283.046875 -229.953125 283.046875 -211.515625 C 283.046875 -193.378906 278.144531 -177.070312 268.34375 -162.59375 C 258.550781 -148.113281 245.316406 -136.703125 228.640625 -128.359375 C 211.960938 -120.023438 192.945312 -115.859375 171.59375 -115.859375 L 81.1875 -115.859375 L 81.1875 0 L 42.125 0 L 42.125 -307.1875 Z M 163.25 -124.625 C 187.238281 -124.625 206.398438 -132.597656 220.734375 -148.546875 C 235.066406 -164.492188 242.234375 -185.484375 242.234375 -211.515625 C 242.234375 -237.554688 235.066406 -258.546875 220.734375 -274.484375 C 206.398438 -290.429688 187.238281 -298.40625 163.25 -298.40625 L 81.1875 -298.40625 L 81.1875 -124.625 Z M 163.25 -124.625 "/></g></g></g></g></g><g transform="matrix(1, 0, 0, 1, 151, -0.000000000000042435)"><g clip-path="url(#12ced22c2f)"><g fill="#ffffff" fill-opacity="1"><g transform="translate(1.173588, 407.615698)"><g><path d="M 179.484375 -307.1875 L 218.546875 -307.1875 L 218.546875 -97.859375 C 218.546875 -76.210938 214.007812 -57.707031 204.9375 -42.34375 C 195.863281 -26.988281 183.425781 -15.359375 167.625 -7.453125 C 151.832031 0.441406 133.84375 4.390625 113.65625 4.390625 C 94.9375 4.390625 78.1875 1.242188 63.40625 -5.046875 C 48.632812 -11.335938 37.003906 -19.96875 28.515625 -30.9375 C 20.035156 -41.90625 15.796875 -54.410156 15.796875 -68.453125 C 15.796875 -75.179688 18.0625 -80.738281 22.59375 -85.125 C 27.132812 -89.519531 32.914062 -91.71875 39.9375 -91.71875 C 46.664062 -91.71875 52.148438 -89.519531 56.390625 -85.125 C 60.628906 -80.738281 62.75 -75.179688 62.75 -68.453125 C 62.75 -62.023438 60.628906 -56.613281 56.390625 -52.21875 C 52.148438 -47.832031 46.664062 -45.640625 39.9375 -45.640625 C 38.757812 -45.640625 37.585938 -45.710938 36.421875 -45.859375 C 35.253906 -46.003906 33.9375 -46.222656 32.46875 -46.515625 C 37.445312 -33.929688 46.519531 -23.984375 59.6875 -16.671875 C 72.851562 -9.359375 87.921875 -5.703125 104.890625 -5.703125 C 128.878906 -5.703125 147.304688 -13.015625 160.171875 -27.640625 C 173.046875 -42.273438 179.484375 -61.585938 179.484375 -85.578125 Z M 179.484375 -307.1875 "/></g></g></g></g></g><g transform="matrix(1, 0, 0, 1, 196, 536)"><g clip-path="url(#e2f191916d)"><g fill="#ffffff" fill-opacity="1"><g transform="translate(2.544401, 48.42763)"><g><path d="M 21.3125 -38.0625 L 21.3125 -9.203125 C 21.3125 -6.234375 20.421875 -3.875 18.640625 -2.125 C 16.867188 -0.375 14.546875 0.5 11.671875 0.5 C 9.003906 0.5 6.8125 -0.25 5.09375 -1.75 C 3.382812 -3.25 2.382812 -5.285156 2.09375 -7.859375 L 6.21875 -8.75 C 6.382812 -7.1875 6.972656 -5.925781 7.984375 -4.96875 C 9.003906 -4.019531 10.234375 -3.546875 11.671875 -3.546875 C 13.273438 -3.546875 14.601562 -4.09375 15.65625 -5.1875 C 16.71875 -6.289062 17.25 -7.773438 17.25 -9.640625 L 17.25 -34 L 3.875 -34 L 3.875 -38.0625 Z M 21.3125 -38.0625 "/></g></g></g><g fill="#ffffff" fill-opacity="1"><g transform="translate(34.860164, 48.42763)"><g><path d="M 13.328125 0.5 C 10.492188 0.5 8.195312 -0.363281 6.4375 -2.09375 C 4.6875 -3.820312 3.8125 -6.171875 3.8125 -9.140625 L 3.8125 -25.375 L 7.671875 -25.375 L 7.671875 -9.578125 C 7.671875 -7.671875 8.207031 -6.164062 9.28125 -5.0625 C 10.363281 -3.96875 11.710938 -3.421875 13.328125 -3.421875 C 14.972656 -3.421875 16.320312 -3.96875 17.375 -5.0625 C 18.4375 -6.164062 18.96875 -7.671875 18.96875 -9.578125 L 18.96875 -25.375 L 22.84375 -25.375 L 22.84375 -9.140625 C 22.84375 -6.171875 21.960938 -3.820312 20.203125 -2.09375 C 18.453125 -0.363281 16.160156 0.5 13.328125 0.5 Z M 13.328125 0.5 "/></g></g></g><g fill="#ffffff" fill-opacity="1"><g transform="translate(68.634216, 48.42763)"><g><path d="M 31.84375 -3.296875 L 33.4375 -3.296875 L 33.4375 0 C 32.882812 0.332031 32.25 0.5 31.53125 0.5 C 30.050781 0.5 28.8125 0.0976562 27.8125 -0.703125 C 26.820312 -1.503906 26.113281 -2.5625 25.6875 -3.875 C 24.507812 -2.5625 23.082031 -1.503906 21.40625 -0.703125 C 19.738281 0.0976562 17.953125 0.5 16.046875 0.5 C 13.640625 0.5 11.429688 -0.0859375 9.421875 -1.265625 C 7.410156 -2.453125 5.8125 -4.050781 4.625 -6.0625 C 3.445312 -8.070312 2.859375 -10.28125 2.859375 -12.6875 C 2.859375 -15.132812 3.445312 -17.351562 4.625 -19.34375 C 5.8125 -21.332031 7.410156 -22.914062 9.421875 -24.09375 C 11.429688 -25.28125 13.640625 -25.875 16.046875 -25.875 C 17.867188 -25.875 19.570312 -25.535156 21.15625 -24.859375 C 22.738281 -24.191406 24.125 -23.265625 25.3125 -22.078125 L 25.3125 -25.375 L 29.25 -25.375 L 29.25 -6.59375 C 29.25 -5.414062 29.507812 -4.570312 30.03125 -4.0625 C 30.5625 -3.550781 31.164062 -3.296875 31.84375 -3.296875 Z M 16.046875 -3.421875 C 17.742188 -3.421875 19.289062 -3.832031 20.6875 -4.65625 C 22.082031 -5.488281 23.203125 -6.613281 24.046875 -8.03125 C 24.890625 -9.445312 25.3125 -11 25.3125 -12.6875 C 25.3125 -14.414062 24.890625 -15.976562 24.046875 -17.375 C 23.203125 -18.769531 22.082031 -19.878906 20.6875 -20.703125 C 19.289062 -21.535156 17.742188 -21.953125 16.046875 -21.953125 C 14.359375 -21.953125 12.804688 -21.535156 11.390625 -20.703125 C 9.972656 -19.878906 8.847656 -18.769531 8.015625 -17.375 C 7.191406 -15.976562 6.78125 -14.414062 6.78125 -12.6875 C 6.78125 -11 7.191406 -9.445312 8.015625 -8.03125 C 8.847656 -6.613281 9.972656 -5.488281 11.390625 -4.65625 C 12.804688 -3.832031 14.359375 -3.421875 16.046875 -3.421875 Z M 16.046875 -3.421875 "/></g></g></g><g fill="#ffffff" fill-opacity="1"><g transform="translate(110.016864, 48.42763)"><g><path d="M 14.71875 -25.875 C 16.363281 -25.875 17.894531 -25.441406 19.3125 -24.578125 C 20.726562 -23.710938 21.878906 -22.550781 22.765625 -21.09375 C 23.660156 -19.632812 24.109375 -17.992188 24.109375 -16.171875 L 24.109375 0 L 20.171875 0 L 20.171875 -16.171875 C 20.171875 -17.785156 19.609375 -19.148438 18.484375 -20.265625 C 17.367188 -21.390625 16.007812 -21.953125 14.40625 -21.953125 C 12.789062 -21.953125 11.410156 -21.390625 10.265625 -20.265625 C 9.128906 -19.148438 8.5625 -17.785156 8.5625 -16.171875 L 8.5625 0 L 4.625 0 L 4.625 -25.375 L 8.5625 -25.375 L 8.5625 -23.34375 C 9.40625 -24.144531 10.34375 -24.765625 11.375 -25.203125 C 12.414062 -25.648438 13.53125 -25.875 14.71875 -25.875 Z M 14.71875 -25.875 "/></g></g></g><g fill="#ffffff" fill-opacity="1"><g transform="translate(145.62967, 48.42763)"><g/></g></g><g fill="#ffffff" fill-opacity="1"><g transform="translate(168.117647, 48.42763)"><g><path d="M 18.265625 -38.0625 C 20.253906 -38.0625 22.039062 -37.582031 23.625 -36.625 C 25.21875 -35.675781 26.488281 -34.398438 27.4375 -32.796875 C 28.382812 -31.191406 28.859375 -29.414062 28.859375 -27.46875 C 28.859375 -25.519531 28.382812 -23.742188 27.4375 -22.140625 C 26.488281 -20.535156 25.21875 -19.265625 23.625 -18.328125 C 22.039062 -17.398438 20.253906 -16.9375 18.265625 -16.9375 L 8.6875 -16.9375 L 8.6875 0 L 4.625 0 L 4.625 -38.0625 Z M 17.890625 -20.8125 C 19.796875 -20.8125 21.421875 -21.390625 22.765625 -22.546875 C 24.117188 -23.710938 24.796875 -25.332031 24.796875 -27.40625 C 24.796875 -29.4375 24.117188 -31.0625 22.765625 -32.28125 C 21.421875 -33.507812 19.796875 -34.125 17.890625 -34.125 L 8.6875 -34.125 L 8.6875 -20.8125 Z M 17.890625 -20.8125 "/></g></g></g><g fill="#ffffff" fill-opacity="1"><g transform="translate(205.252174, 48.42763)"><g><path d="M 31.84375 -3.296875 L 33.4375 -3.296875 L 33.4375 0 C 32.882812 0.332031 32.25 0.5 31.53125 0.5 C 30.050781 0.5 28.8125 0.0976562 27.8125 -0.703125 C 26.820312 -1.503906 26.113281 -2.5625 25.6875 -3.875 C 24.507812 -2.5625 23.082031 -1.503906 21.40625 -0.703125 C 19.738281 0.0976562 17.953125 0.5 16.046875 0.5 C 13.640625 0.5 11.429688 -0.0859375 9.421875 -1.265625 C 7.410156 -2.453125 5.8125 -4.050781 4.625 -6.0625 C 3.445312 -8.070312 2.859375 -10.28125 2.859375 -12.6875 C 2.859375 -15.132812 3.445312 -17.351562 4.625 -19.34375 C 5.8125 -21.332031 7.410156 -22.914062 9.421875 -24.09375 C 11.429688 -25.28125 13.640625 -25.875 16.046875 -25.875 C 17.867188 -25.875 19.570312 -25.535156 21.15625 -24.859375 C 22.738281 -24.191406 24.125 -23.265625 25.3125 -22.078125 L 25.3125 -25.375 L 29.25 -25.375 L 29.25 -6.59375 C 29.25 -5.414062 29.507812 -4.570312 30.03125 -4.0625 C 30.5625 -3.550781 31.164062 -3.296875 31.84375 -3.296875 Z M 16.046875 -3.421875 C 17.742188 -3.421875 19.289062 -3.832031 20.6875 -4.65625 C 22.082031 -5.488281 23.203125 -6.613281 24.046875 -8.03125 C 24.890625 -9.445312 25.3125 -11 25.3125 -12.6875 C 25.3125 -14.414062 24.890625 -15.976562 24.046875 -17.375 C 23.203125 -18.769531 22.082031 -19.878906 20.6875 -20.703125 C 19.289062 -21.535156 17.742188 -21.953125 16.046875 -21.953125 C 14.359375 -21.953125 12.804688 -21.535156 11.390625 -20.703125 C 9.972656 -19.878906 8.847656 -18.769531 8.015625 -17.375 C 7.191406 -15.976562 6.78125 -14.414062 6.78125 -12.6875 C 6.78125 -11 7.191406 -9.445312 8.015625 -8.03125 C 8.847656 -6.613281 9.972656 -5.488281 11.390625 -4.65625 C 12.804688 -3.832031 14.359375 -3.421875 16.046875 -3.421875 Z M 16.046875 -3.421875 "/></g></g></g><g fill="#ffffff" fill-opacity="1"><g transform="translate(246.634821, 48.42763)"><g><path d="M 17.828125 -25.875 C 20.273438 -25.875 22.492188 -25.28125 24.484375 -24.09375 C 26.472656 -22.914062 28.054688 -21.332031 29.234375 -19.34375 C 30.421875 -17.351562 31.015625 -15.132812 31.015625 -12.6875 C 31.015625 -10.28125 30.421875 -8.070312 29.234375 -6.0625 C 28.054688 -4.050781 26.472656 -2.453125 24.484375 -1.265625 C 22.492188 -0.0859375 20.273438 0.5 17.828125 0.5 C 16.003906 0.5 14.3125 0.164062 12.75 -0.5 C 11.1875 -1.175781 9.789062 -2.109375 8.5625 -3.296875 L 8.5625 0 L 4.625 0 L 4.625 -46.6875 L 8.5625 -46.6875 L 8.5625 -22.078125 C 9.789062 -23.265625 11.1875 -24.191406 12.75 -24.859375 C 14.3125 -25.535156 16.003906 -25.875 17.828125 -25.875 Z M 17.828125 -3.421875 C 19.554688 -3.421875 21.117188 -3.832031 22.515625 -4.65625 C 23.910156 -5.488281 25.019531 -6.613281 25.84375 -8.03125 C 26.675781 -9.445312 27.09375 -11 27.09375 -12.6875 C 27.09375 -14.414062 26.675781 -15.976562 25.84375 -17.375 C 25.019531 -18.769531 23.910156 -19.878906 22.515625 -20.703125 C 21.117188 -21.535156 19.554688 -21.953125 17.828125 -21.953125 C 16.128906 -21.953125 14.570312 -21.535156 13.15625 -20.703125 C 11.738281 -19.878906 10.617188 -18.769531 9.796875 -17.375 C 8.972656 -15.976562 8.5625 -14.414062 8.5625 -12.6875 C 8.5625 -11 8.972656 -9.445312 9.796875 -8.03125 C 10.617188 -6.613281 11.738281 -5.488281 13.15625 -4.65625 C 14.570312 -3.832031 16.128906 -3.421875 17.828125 -3.421875 Z M 17.828125 -3.421875 "/></g></g></g><g fill="#ffffff" fill-opacity="1"><g transform="translate(287.700461, 48.42763)"><g><path d="M 14.46875 -28.671875 L 20.046875 -38.0625 L 24.609375 -38.0625 L 17.125 -28.671875 Z M 16.046875 0.5 C 13.640625 0.5 11.429688 -0.0859375 9.421875 -1.265625 C 7.410156 -2.453125 5.8125 -4.050781 4.625 -6.0625 C 3.445312 -8.070312 2.859375 -10.28125 2.859375 -12.6875 C 2.859375 -15.132812 3.445312 -17.351562 4.625 -19.34375 C 5.8125 -21.332031 7.410156 -22.914062 9.421875 -24.09375 C 11.429688 -25.28125 13.640625 -25.875 16.046875 -25.875 C 18.503906 -25.875 20.722656 -25.28125 22.703125 -24.09375 C 24.691406 -22.914062 26.28125 -21.332031 27.46875 -19.34375 C 28.65625 -17.351562 29.25 -15.132812 29.25 -12.6875 C 29.25 -10.28125 28.65625 -8.070312 27.46875 -6.0625 C 26.28125 -4.050781 24.691406 -2.453125 22.703125 -1.265625 C 20.722656 -0.0859375 18.503906 0.5 16.046875 0.5 Z M 16.046875 -3.421875 C 17.742188 -3.421875 19.289062 -3.832031 20.6875 -4.65625 C 22.082031 -5.488281 23.203125 -6.613281 24.046875 -8.03125 C 24.890625 -9.445312 25.3125 -11 25.3125 -12.6875 C 25.3125 -14.414062 24.890625 -15.976562 24.046875 -17.375 C 23.203125 -18.769531 22.082031 -19.878906 20.6875 -20.703125 C 19.289062 -21.535156 17.742188 -21.953125 16.046875 -21.953125 C 14.359375 -21.953125 12.804688 -21.535156 11.390625 -20.703125 C 9.972656 -19.878906 8.847656 -18.769531 8.015625 -17.375 C 7.191406 -15.976562 6.78125 -14.414062 6.78125 -12.6875 C 6.78125 -11 7.191406 -9.445312 8.015625 -8.03125 C 8.847656 -6.613281 9.972656 -5.488281 11.390625 -4.65625 C 12.804688 -3.832031 14.359375 -3.421875 16.046875 -3.421875 Z M 16.046875 -3.421875 "/></g></g></g><g fill="#ffffff" fill-opacity="1"><g transform="translate(326.990749, 48.42763)"><g><path d="M 14.71875 -25.875 C 16.363281 -25.875 17.894531 -25.441406 19.3125 -24.578125 C 20.726562 -23.710938 21.878906 -22.550781 22.765625 -21.09375 C 23.660156 -19.632812 24.109375 -17.992188 24.109375 -16.171875 L 24.109375 0 L 20.171875 0 L 20.171875 -16.171875 C 20.171875 -17.785156 19.609375 -19.148438 18.484375 -20.265625 C 17.367188 -21.390625 16.007812 -21.953125 14.40625 -21.953125 C 12.789062 -21.953125 11.410156 -21.390625 10.265625 -20.265625 C 9.128906 -19.148438 8.5625 -17.785156 8.5625 -16.171875 L 8.5625 0 L 4.625 0 L 4.625 -25.375 L 8.5625 -25.375 L 8.5625 -23.34375 C 9.40625 -24.144531 10.34375 -24.765625 11.375 -25.203125 C 12.414062 -25.648438 13.53125 -25.875 14.71875 -25.875 Z M 14.71875 -25.875 "/></g></g></g></g></g></svg>