<svg xmlns="http://www.w3.org/2000/svg" xmlns:xlink="http://www.w3.org/1999/xlink" width="1000" zoomAndPan="magnify" viewBox="0 0 750 749.999995" height="1000" preserveAspectRatio="xMidYMid meet" version="1.0"><defs><g/><clipPath id="4fabe88137"><rect x="0" width="253" y="0" height="542"/></clipPath><clipPath id="d047e69983"><rect x="0" width="163" y="0" height="500"/></clipPath><clipPath id="90c39d63a0"><rect x="0" width="439" y="0" height="52"/></clipPath></defs><g transform="matrix(1, 0, 0, 1, 285, 67)"><g clip-path="url(#4fabe88137)"><g fill="#ffffff" fill-opacity="1"><g transform="translate(1.85749, 391.81834)"><g><path d="M 141.265625 -287.34375 C 164.546875 -287.34375 183.941406 -281.726562 199.453125 -270.5 C 220.328125 -255.507812 230.765625 -232.097656 230.765625 -200.265625 C 230.765625 -177.253906 224.34375 -157.585938 211.5 -141.265625 C 197.582031 -123.878906 178.1875 -115.1875 153.3125 -115.1875 C 140.195312 -115.1875 128.285156 -118.328125 117.578125 -124.609375 C 106.878906 -130.898438 100.597656 -141.671875 98.734375 -156.921875 L 102.34375 -158.125 C 105.28125 -146.613281 112.101562 -138.585938 122.8125 -134.046875 C 130.03125 -130.835938 136.445312 -129.234375 142.0625 -129.234375 C 164.007812 -129.234375 179.929688 -137.789062 189.828125 -154.90625 C 197.046875 -167.488281 200.65625 -182.472656 200.65625 -199.859375 C 200.65625 -227.679688 192.898438 -247.75 177.390625 -260.0625 C 165.617188 -269.695312 150.632812 -274.515625 132.4375 -274.515625 C 128.15625 -274.515625 124.472656 -274.3125 121.390625 -273.90625 C 118.316406 -273.5 104.875 -271.289062 81.0625 -267.28125 L 81.0625 -29.296875 C 81.332031 -22.078125 84.007812 -16.054688 89.09375 -11.234375 C 94.175781 -6.421875 100.0625 -4.015625 106.75 -4.015625 L 111.96875 -4.015625 L 111.96875 0 L 24.078125 0 L 24.078125 -4.015625 L 29.296875 -4.015625 C 35.984375 -4.015625 41.867188 -6.421875 46.953125 -11.234375 C 52.035156 -16.054688 54.710938 -22.078125 54.984375 -29.296875 L 54.984375 -246.421875 C 54.984375 -253.367188 52.972656 -258.78125 48.953125 -262.65625 C 44.941406 -266.539062 39.726562 -268.484375 33.3125 -268.484375 C 31.96875 -268.484375 30.628906 -268.351562 29.296875 -268.09375 L 24.484375 -267.6875 L 23.671875 -271.703125 C 37.585938 -273.035156 56.25 -275.640625 79.65625 -279.515625 C 103.070312 -283.398438 117.585938 -285.675781 123.203125 -286.34375 C 128.828125 -287.007812 134.847656 -287.34375 141.265625 -287.34375 Z M 141.265625 -287.34375 "/></g></g></g></g></g><g transform="matrix(1, 0, 0, 1, 164, 134)"><g clip-path="url(#d047e69983)"><g fill="#ffffff" fill-opacity="1"><g transform="translate(33.863127, 359.891444)"><g><path d="M -29.34375 50.15625 C -22.65625 52.382812 -16.03125 53.5 -9.46875 53.5 C -2.90625 53.5 3.960938 52.132812 11.140625 49.40625 C 18.328125 46.6875 24.894531 42.414062 30.84375 36.59375 C 36.789062 30.769531 41.679688 22.035156 45.515625 10.390625 C 49.359375 -1.242188 51.28125 -14.988281 51.28125 -30.84375 L 51.28125 -232.953125 C 51.03125 -239.398438 48.613281 -244.914062 44.03125 -249.5 C 39.445312 -254.082031 33.9375 -256.375 27.5 -256.375 L 22.671875 -256.375 L 22.671875 -260.078125 L 104.03125 -260.078125 L 104.03125 -256.375 L 99.203125 -256.375 C 92.765625 -256.375 87.253906 -254.140625 82.671875 -249.671875 C 78.085938 -245.210938 75.671875 -239.640625 75.421875 -232.953125 L 75.421875 -29.71875 C 75.421875 -12.875 72.820312 1.859375 67.625 14.484375 C 62.425781 27.117188 55.863281 36.65625 47.9375 43.09375 C 33.070312 54.738281 16.597656 60.5625 -1.484375 60.5625 C -12.128906 60.5625 -21.910156 58.457031 -30.828125 54.25 Z M -29.34375 50.15625 "/></g></g></g></g></g><g transform="matrix(1, 0, 0, 1, 155, 323)"><g clip-path="url(#90c39d63a0)"><path fill="#000000" d="M 13.9375 2.402344 L 426.046875 2.402344 C 429.203125 2.402344 432.226562 3.65625 434.457031 5.886719 C 436.6875 8.117188 437.9375 11.140625 437.9375 14.292969 L 437.9375 38.074219 C 437.9375 41.230469 436.6875 44.253906 434.457031 46.484375 C 432.226562 48.714844 429.203125 49.964844 426.046875 49.964844 L 13.9375 49.964844 C 7.371094 49.964844 2.046875 44.640625 2.046875 38.074219 L 2.046875 14.292969 C 2.046875 7.726562 7.371094 2.402344 13.9375 2.402344 Z M 13.9375 2.402344 " fill-opacity="1" fill-rule="nonzero"/><g fill="#ffffff" fill-opacity="1"><g transform="translate(24.950818, 32.922926)"><g><path d="M 9.046875 -4.546875 C 9.046875 -2.554688 8.664062 -0.835938 7.90625 0.609375 C 7.144531 2.054688 6.085938 3.164062 4.734375 3.9375 C 3.378906 4.707031 1.835938 5.117188 0.109375 5.171875 L 0.109375 1.90625 C 1.816406 1.8125 3.171875 1.210938 4.171875 0.109375 C 5.179688 -0.984375 5.6875 -2.566406 5.6875 -4.640625 L 5.6875 -25.0625 L 9.046875 -25.0625 Z M 9.046875 -4.546875 "/></g></g></g><g fill="#ffffff" fill-opacity="1"><g transform="translate(55.670214, 32.922926)"><g><path d="M 6.65625 -8.875 C 6.65625 -7.769531 6.921875 -6.769531 7.453125 -5.875 C 7.984375 -4.988281 8.703125 -4.285156 9.609375 -3.765625 C 10.523438 -3.242188 11.539062 -2.984375 12.65625 -2.984375 C 13.8125 -2.984375 14.859375 -3.234375 15.796875 -3.734375 C 16.734375 -4.242188 17.46875 -4.953125 18 -5.859375 C 18.53125 -6.765625 18.796875 -7.769531 18.796875 -8.875 L 18.796875 -25.0625 L 22.078125 -25.0625 L 22.078125 -8.765625 C 22.078125 -6.992188 21.660156 -5.414062 20.828125 -4.03125 C 20.003906 -2.65625 18.875 -1.59375 17.4375 -0.84375 C 16.007812 -0.09375 14.414062 0.28125 12.65625 0.28125 C 10.925781 0.28125 9.34375 -0.09375 7.90625 -0.84375 C 6.46875 -1.59375 5.335938 -2.65625 4.515625 -4.03125 C 3.703125 -5.414062 3.296875 -6.992188 3.296875 -8.765625 L 3.296875 -25.0625 L 6.65625 -25.0625 Z M 6.65625 -8.875 "/></g></g></g><g fill="#ffffff" fill-opacity="1"><g transform="translate(99.112126, 32.922926)"><g><path d="M 16.75 -6.59375 L 7.109375 -6.59375 L 4.4375 0 L 1.109375 0 L 12.0625 -26.109375 L 12.28125 -26.109375 L 23.234375 0 L 19.34375 0 Z M 15.609375 -9.5 L 12.03125 -18.65625 L 8.328125 -9.5 Z M 15.609375 -9.5 "/></g></g></g><g fill="#ffffff" fill-opacity="1"><g transform="translate(141.479382, 32.922926)"><g><path d="M 25.453125 -25.0625 L 25.453125 0.828125 L 25.34375 0.828125 L 6.9375 -17.859375 L 7 0 L 3.609375 0 L 3.609375 -25.828125 L 3.78125 -25.828125 L 22.15625 -6.9375 L 22.078125 -25.0625 Z M 25.453125 -25.0625 "/></g></g></g><g fill="#ffffff" fill-opacity="1"><g transform="translate(188.595925, 32.922926)"><g/></g></g><g fill="#ffffff" fill-opacity="1"><g transform="translate(217.616698, 32.922926)"><g><path d="M 10.328125 -25.0625 C 13.054688 -25.0625 15.1875 -24.378906 16.71875 -23.015625 C 18.257812 -21.648438 19.03125 -19.742188 19.03125 -17.296875 C 19.03125 -15.890625 18.742188 -14.570312 18.171875 -13.34375 C 17.609375 -12.125 16.695312 -11.128906 15.4375 -10.359375 C 14.1875 -9.597656 12.597656 -9.21875 10.671875 -9.21875 L 6.96875 -9.21875 L 6.96875 0 L 3.609375 0 L 3.609375 -25.0625 Z M 10.671875 -12.484375 C 11.878906 -12.484375 12.859375 -12.734375 13.609375 -13.234375 C 14.359375 -13.742188 14.894531 -14.363281 15.21875 -15.09375 C 15.539062 -15.820312 15.703125 -16.535156 15.703125 -17.234375 C 15.703125 -18.429688 15.304688 -19.5 14.515625 -20.4375 C 13.734375 -21.375 12.515625 -21.84375 10.859375 -21.84375 L 6.96875 -21.84375 L 6.96875 -12.484375 Z M 10.671875 -12.484375 "/></g></g></g><g fill="#ffffff" fill-opacity="1"><g transform="translate(256.30935, 32.922926)"><g><path d="M 16.75 -6.59375 L 7.109375 -6.59375 L 4.4375 0 L 1.109375 0 L 12.0625 -26.109375 L 12.28125 -26.109375 L 23.234375 0 L 19.34375 0 Z M 15.609375 -9.5 L 12.03125 -18.65625 L 8.328125 -9.5 Z M 15.609375 -9.5 "/></g></g></g><g fill="#ffffff" fill-opacity="1"><g transform="translate(298.676606, 32.922926)"><g><path d="M 14.765625 -13 C 16.203125 -12.445312 17.335938 -11.65625 18.171875 -10.625 C 19.003906 -9.59375 19.421875 -8.394531 19.421875 -7.03125 C 19.421875 -5.4375 19.03125 -4.113281 18.25 -3.0625 C 17.476562 -2.007812 16.460938 -1.234375 15.203125 -0.734375 C 13.941406 -0.242188 12.5625 0 11.0625 0 L 3.609375 0 L 3.609375 -25.0625 L 10.09375 -25.0625 C 12.65625 -25.0625 14.640625 -24.535156 16.046875 -23.484375 C 17.460938 -22.429688 18.171875 -20.851562 18.171875 -18.75 C 18.171875 -17.4375 17.875 -16.285156 17.28125 -15.296875 C 16.695312 -14.316406 15.859375 -13.550781 14.765625 -13 Z M 6.96875 -14.109375 L 10.78125 -14.109375 C 12.070312 -14.109375 13.046875 -14.476562 13.703125 -15.21875 C 14.367188 -15.957031 14.703125 -16.90625 14.703125 -18.0625 C 14.703125 -19.332031 14.304688 -20.28125 13.515625 -20.90625 C 12.734375 -21.53125 11.640625 -21.84375 10.234375 -21.84375 L 6.96875 -21.84375 Z M 10.921875 -3.125 C 12.378906 -3.125 13.582031 -3.453125 14.53125 -4.109375 C 15.476562 -4.765625 15.953125 -5.726562 15.953125 -7 C 15.953125 -8.320312 15.4375 -9.296875 14.40625 -9.921875 C 13.375 -10.546875 12.128906 -10.859375 10.671875 -10.859375 L 6.96875 -10.859375 L 6.96875 -3.125 Z M 10.921875 -3.125 "/></g></g></g><g fill="#ffffff" fill-opacity="1"><g transform="translate(338.201231, 32.922926)"><g><path d="M 2.046875 -12.515625 C 2.046875 -14.804688 2.625 -16.929688 3.78125 -18.890625 C 4.9375 -20.859375 6.488281 -22.425781 8.4375 -23.59375 C 10.394531 -24.757812 12.53125 -25.34375 14.84375 -25.34375 C 17.125 -25.34375 19.25 -24.757812 21.21875 -23.59375 C 23.1875 -22.425781 24.753906 -20.859375 25.921875 -18.890625 C 27.085938 -16.929688 27.671875 -14.804688 27.671875 -12.515625 C 27.671875 -10.203125 27.09375 -8.0625 25.9375 -6.09375 C 24.78125 -4.132812 23.210938 -2.582031 21.234375 -1.4375 C 19.253906 -0.289062 17.125 0.28125 14.84375 0.28125 C 12.53125 0.28125 10.390625 -0.285156 8.421875 -1.421875 C 6.460938 -2.554688 4.910156 -4.097656 3.765625 -6.046875 C 2.617188 -8.003906 2.046875 -10.160156 2.046875 -12.515625 Z M 5.515625 -12.484375 C 5.515625 -10.773438 5.929688 -9.191406 6.765625 -7.734375 C 7.597656 -6.273438 8.734375 -5.117188 10.171875 -4.265625 C 11.617188 -3.410156 13.195312 -2.984375 14.90625 -2.984375 C 16.613281 -2.984375 18.175781 -3.40625 19.59375 -4.25 C 21.019531 -5.09375 22.144531 -6.25 22.96875 -7.71875 C 23.789062 -9.1875 24.203125 -10.785156 24.203125 -12.515625 C 24.203125 -14.242188 23.785156 -15.847656 22.953125 -17.328125 C 22.117188 -18.816406 20.984375 -19.988281 19.546875 -20.84375 C 18.117188 -21.695312 16.550781 -22.125 14.84375 -22.125 C 13.132812 -22.125 11.5625 -21.6875 10.125 -20.8125 C 8.6875 -19.945312 7.554688 -18.773438 6.734375 -17.296875 C 5.921875 -15.816406 5.515625 -14.210938 5.515625 -12.484375 Z M 15.84375 -26.421875 L 13.765625 -26.421875 L 16.640625 -31.0625 L 20.25 -31.0625 Z M 15.84375 -26.421875 "/></g></g></g><g fill="#ffffff" fill-opacity="1"><g transform="translate(385.976417, 32.922926)"><g><path d="M 25.453125 -25.0625 L 25.453125 0.828125 L 25.34375 0.828125 L 6.9375 -17.859375 L 7 0 L 3.609375 0 L 3.609375 -25.828125 L 3.78125 -25.828125 L 22.15625 -6.9375 L 22.078125 -25.0625 Z M 25.453125 -25.0625 "/></g></g></g></g></g></svg>